HIERARCHY
ROOT Hips
{
 OFFSET 0.000000 0.000000 0.000000
 CHANNELS 6 Xposition Yposition Zposition Yrotation Xrotation Zrotation
 JOINT Chest
 {
  OFFSET 0.000000 9.585900 0.002600
  CHANNELS 3 Yrotation Xrotation Zrotation
  JOINT Chest2
  {
   OFFSET 0.000000 9.601200 -0.005300
   CHANNELS 3 Yrotation Xrotation Zrotation
   JOINT Chest3
   {
    OFFSET 0.000000 9.561800 0.000000
    CHANNELS 3 Yrotation Xrotation Zrotation
    JOINT Chest4
    {
     OFFSET 0.000000 9.552100 0.000000
     CHANNELS 3 Yrotation Xrotation Zrotation
     JOINT Neck
     {
      OFFSET 0.000000 14.453000 0.000000
      CHANNELS 3 Yrotation Xrotation Zrotation
      JOINT Head
      {
       OFFSET 0.000000 8.936500 -0.011300
       CHANNELS 3 Yrotation Xrotation Zrotation
       End Site
       {
        OFFSET 0.000000 17.073600 -0.006000
       }
      }
     }
     JOINT RightCollar
     {
      OFFSET -2.921100 9.558500 0.000000
      CHANNELS 3 Yrotation Xrotation Zrotation
      JOINT RightShoulder
      {
       OFFSET -13.519700 0.000000 0.000000
       CHANNELS 3 Yrotation Xrotation Zrotation
       JOINT RightElbow
       {
        OFFSET 0.000000 -29.696600 0.000000
        CHANNELS 3 Yrotation Xrotation Zrotation
        JOINT RightWrist
        {
         OFFSET 0.000000 -24.004700 0.000000
         CHANNELS 3 Yrotation Xrotation Zrotation
         End Site
         {
          OFFSET 0.000000 -17.728500 0.000000
         }
        }
       }
      }
     }
     JOINT LeftCollar
     {
      OFFSET 2.921100 9.558500 0.000000
      CHANNELS 3 Yrotation Xrotation Zrotation
      JOINT LeftShoulder
      {
       OFFSET 13.519700 0.000000 0.000000
       CHANNELS 3 Yrotation Xrotation Zrotation
       JOINT LeftElbow
       {
        OFFSET 0.000000 -29.696600 0.000000
        CHANNELS 3 Yrotation Xrotation Zrotation
        JOINT LeftWrist
        {
         OFFSET 0.000000 -24.004700 0.000000
         CHANNELS 3 Yrotation Xrotation Zrotation
         End Site
         {
          OFFSET 0.000000 -17.728500 0.000000
         }
        }
       }
      }
     }
    }
   }
  }
 }
 JOINT RightHip
 {
  OFFSET -7.771700 -0.012900 -0.001300
  CHANNELS 3 Yrotation Xrotation Zrotation
  JOINT RightKnee
  {
   OFFSET 0.000000 -40.869800 0.001200
   CHANNELS 3 Yrotation Xrotation Zrotation
   JOINT RightAnkle
   {
    OFFSET 0.000000 -39.717900 0.002100
    CHANNELS 3 Yrotation Xrotation Zrotation
    JOINT RightToe
    {
     OFFSET 0.000000 -4.965400 11.033500
     CHANNELS 3 Yrotation Xrotation Zrotation
     End Site
     {
      OFFSET 0.000000 -1.423100 5.872300
     }
    }
   }
  }
 }
 JOINT LeftHip
 {
  OFFSET 7.771700 -0.012900 -0.001300
  CHANNELS 3 Yrotation Xrotation Zrotation
  JOINT LeftKnee
  {
   OFFSET 0.000000 -40.869800 0.001200
   CHANNELS 3 Yrotation Xrotation Zrotation
   JOINT LeftAnkle
   {
    OFFSET 0.000000 -39.717900 0.002100
    CHANNELS 3 Yrotation Xrotation Zrotation
    JOINT LeftToe
    {
     OFFSET 0.000000 -4.965400 11.033500
     CHANNELS 3 Yrotation Xrotation Zrotation
     End Site
     {
      OFFSET 0.000000 -1.423100 5.872300
     }
    }
   }
  }
 }
}
MOTION
Frames: 16
Frame Time: 0.008333
-80.826565 46.770043 -11.430402 173.974633 -32.760566 -3.728680 0.913438 19.729223 1.522164 0.120146 2.436420 0.174243 0.140739 4.022013 0.277778 0.857467 17.090851 1.310722 -0.789566 15.236173 -3.401527 -0.251621 -7.450844 -6.088826 1.642547 -0.060801 -1.356425 6.491367 -8.842583 -13.050285 -39.103900 -56.317369 83.973638 -1.229437 7.440291 -24.264955 -1.555449 0.927245 2.486591 -5.378200 -5.733471 9.383191 47.799906 -76.625319 -82.109399 -0.676342 8.246192 16.220729 -8.212581 -54.076708 -1.861923 -174.095287 81.203351 -164.251119 -5.950698 -18.781588 -5.242809 0.011532 -0.733593 0.256097 -2.235622 -56.317501 14.478823 -117.822449 81.636730 -121.624958 8.337273 -7.135967 5.971245 0.034086 -0.046252 -0.171355
-80.794199 46.772717 -11.448874 173.812640 -32.722828 -3.678614 0.964973 19.714564 1.511944 0.099338 2.443149 0.167018 0.167079 4.013716 0.276893 0.869720 17.089434 1.293227 -0.775465 15.245277 -3.443153 -0.179988 -7.448239 -6.146602 1.659390 -0.091827 -1.367037 6.536933 -8.840721 -13.043441 -39.018649 -56.235800 83.844449 -1.222790 7.481873 -24.207034 -1.555985 0.918722 2.488010 -5.448682 -5.714905 9.395305 47.855151 -76.622595 -82.106629 -0.666409 8.287089 16.281576 -8.327065 -54.102211 -1.758950 -174.864262 81.304788 -164.991105 -5.996291 -18.479234 -5.450029 0.019967 -0.796143 0.256196 -2.274723 -56.339848 14.569603 -118.191471 81.640361 -121.951416 8.408506 -7.203286 5.913950 0.022620 -0.033213 -0.204438
-80.761643 46.776152 -11.470145 173.661620 -32.727062 -3.637920 1.016926 19.740219 1.506948 0.142195 2.429600 0.174903 0.128288 4.026929 0.264076 0.880113 17.089590 1.276712 -0.751886 15.254398 -3.464716 -0.128450 -7.429587 -6.195277 1.674266 -0.138051 -1.379982 6.554588 -8.824922 -13.067572 -38.961067 -56.126322 83.779906 -1.220234 7.529479 -24.159456 -1.559796 0.905924 2.491712 -5.470532 -5.706275 9.397292 47.854156 -76.619074 -82.093710 -0.642066 8.406403 16.303501 -8.459151 -54.075901 -1.632774 -175.733761 81.405158 -165.839437 -6.031232 -18.208017 -5.681838 0.027927 -0.829057 0.271362 -2.331635 -56.318561 14.671402 -118.556644 81.646909 -122.278193 8.476862 -7.283078 5.851706 0.010057 -0.005322 -0.233325
-80.731058 46.775510 -11.487322 173.549468 -32.720086 -3.611209 1.035712 19.753583 1.495010 0.123697 2.437192 0.167531 0.151092 4.020854 0.264380 0.927100 17.077876 1.276496 -0.754953 15.270363 -3.478755 -0.098212 -7.391176 -6.227281 1.637014 -0.183969 -1.403571 6.561498 -8.806024 -13.130518 -38.940823 -55.978017 83.791653 -1.224110 7.582811 -24.118993 -1.604484 0.904425 2.491637 -5.429038 -5.708740 9.398474 47.829284 -76.602325 -82.113947 -0.622620 8.516464 16.323273 -8.626875 -54.036645 -1.498089 -176.684932 81.513530 -166.789098 -6.044261 -17.983918 -5.905658 0.026144 -0.823626 0.281968 -2.414976 -56.306134 14.765593 -118.914696 81.653548 -122.601199 8.514712 -7.350568 5.829388 0.006697 0.009411 -0.268496
-80.699754 46.772072 -11.501388 173.428553 -32.713696 -3.587977 1.066274 19.763991 1.493596 0.103965 2.444666 0.159659 0.174466 4.015986 0.264842 0.914209 17.088400 1.252254 -0.672811 15.248134 -3.472844 -0.101305 -7.321142 -6.240294 1.669537 -0.247052 -1.415706 6.588120 -8.785286 -13.154264 -38.898787 -55.852902 83.739180 -1.227967 7.634395 -24.082063 -1.598002 0.882351 2.499163 -5.446900 -5.706921 9.381395 47.790341 -76.590251 -82.051352 -0.610887 8.596179 16.347922 -8.797243 -54.005099 -1.334119 -177.523602 81.605376 -167.633951 -6.046522 -17.772254 -6.111099 0.031550 -0.810831 0.282234 -2.440871 -56.306518 14.853711 -119.211971 81.630537 -122.834663 8.527943 -7.408304 5.769283 0.028060 0.011375 -0.212664
-80.675388 46.766175 -11.513745 173.317411 -32.708023 -3.533865 1.119034 19.763789 1.477483 0.067368 2.456557 0.149887 0.175545 4.017737 0.260508 0.897981 17.098852 1.225794 -0.632787 15.259032 -3.475057 -0.072262 -7.276647 -6.232151 1.701070 -0.309291 -1.426865 6.619679 -8.767592 -13.181978 -38.871396 -55.723312 83.699142 -1.228875 7.679848 -24.047478 -1.596047 0.857380 2.507973 -5.466303 -5.707308 9.355402 47.709233 -76.575824 -81.941853 -0.600456 8.666382 16.361999 -8.914702 -53.982495 -1.235330 -178.118926 81.675340 -168.244328 -6.028706 -17.590271 -6.275433 0.036856 -0.784141 0.264445 -2.496673 -56.290816 14.895700 -119.564320 81.648807 -123.163195 8.570920 -7.469110 5.722925 0.019411 0.025677 -0.225359
-80.653711 46.758710 -11.523753 173.220617 -32.701299 -3.481256 1.157108 19.763439 1.455024 0.036577 2.470105 0.141834 0.175145 4.019040 0.256209 0.893776 17.102094 1.206397 -0.660241 15.319300 -3.470733 -0.001427 -7.268875 -6.227995 1.715722 -0.363045 -1.441895 6.655867 -8.755397 -13.216061 -38.885683 -55.634991 83.725529 -1.229261 7.701420 -24.030934 -1.611389 0.833748 2.512512 -5.472702 -5.707278 9.331789 47.634180 -76.573216 -81.808821 -0.583348 8.728438 16.322947 -9.011484 -53.961787 -1.162318 -178.344385 81.729460 -168.479197 -5.991461 -17.433355 -6.400431 0.039012 -0.749991 0.230581 -2.542909 -56.277322 14.914888 -119.903296 81.673534 -123.476497 8.638650 -7.527092 5.662292 0.003473 0.038880 -0.209592
-80.633912 46.750494 -11.531671 173.133153 -32.694008 -3.437527 1.160379 19.775822 1.420839 0.036518 2.472858 0.142634 0.173521 4.019575 0.251874 0.925974 17.090852 1.200596 -0.699819 15.372617 -3.458516 0.036866 -7.229145 -6.210723 1.723568 -0.389455 -1.449952 6.661147 -8.758228 -13.268563 -38.907906 -55.544158 83.762824 -1.231333 7.722801 -24.015654 -1.663537 0.819850 2.513793 -5.481763 -5.708135 9.306083 47.561127 -76.547332 -81.731085 -0.586085 8.774379 16.333315 -9.088482 -53.941538 -1.108467 -178.245178 81.772759 -168.377196 -5.934516 -17.288021 -6.490256 0.037782 -0.717583 0.184303 -2.569354 -56.270110 14.928590 -120.217831 81.690717 -123.752441 8.696900 -7.581153 5.592457 0.010556 0.054440 -0.191398
-80.622205 46.740601 -11.537004 173.058190 -32.672480 -3.373359 1.089439 19.799434 1.336781 0.104887 2.445955 0.150335 0.152831 4.025922 0.245280 0.894635 17.098583 1.174676 -0.664932 15.398310 -3.438599 0.054783 -7.168525 -6.179918 1.792186 -0.432357 -1.456922 6.660526 -8.763856 -13.326832 -38.887927 -55.410233 83.717771 -1.222621 7.743628 -23.954267 -1.607851 0.788780 2.517308 -5.534846 -5.715743 9.279765 47.501131 -76.524290 -81.668475 -0.594294 8.811576 16.339626 -9.110993 -53.948265 -1.128580 -177.950961 81.801579 -168.071164 -5.861832 -17.136352 -6.549186 0.035621 -0.697626 0.131622 -2.564801 -56.277327 14.903821 -120.437426 81.721585 -123.971671 8.747832 -7.615468 5.552171 -0.009526 0.066020 -0.188440
-80.613279 46.730443 -11.540618 172.978224 -32.645785 -3.314850 1.059853 19.805190 1.278344 0.173953 2.417792 0.158614 0.133150 4.032202 0.240894 0.826820 17.116127 1.148007 -0.632758 15.428965 -3.415117 0.067773 -7.101777 -6.141505 1.784751 -0.491753 -1.486260 6.721739 -8.757990 -13.366093 -38.885466 -55.340265 83.717715 -1.260529 7.784375 -23.951789 -1.611543 0.754398 2.515306 -5.525909 -5.719097 9.255431 47.447013 -76.514794 -81.601795 -0.600437 8.844018 16.330386 -9.113398 -53.956064 -1.157388 -177.493587 81.827776 -167.590173 -5.786141 -16.962071 -6.591408 0.032659 -0.703260 0.083205 -2.523551 -56.300163 14.882466 -120.623638 81.730664 -124.138900 8.775893 -7.667272 5.545025 -0.018386 0.096034 -0.207277
-80.593804 46.724744 -11.546990 172.866859 -32.658007 -3.326385 1.143564 19.826402 1.338254 0.082482 2.453082 0.144557 0.168010 4.016228 0.241366 0.877751 17.094429 1.142207 -0.662631 15.478995 -3.386452 0.077384 -7.030301 -6.097813 1.761515 -0.517819 -1.500713 6.730843 -8.767791 -13.424730 -38.897598 -55.295709 83.761916 -1.261312 7.777219 -23.948540 -1.672820 0.735638 2.510848 -5.516304 -5.726372 9.236098 47.410054 -76.506880 -81.556030 -0.611871 8.878507 16.319061 -9.167756 -53.913179 -1.064718 -176.867876 81.867118 -166.917707 -5.708216 -16.740698 -6.647802 0.025980 -0.734885 0.050906 -2.580322 -56.281535 14.992564 -121.052773 81.719036 -124.463453 8.729928 -7.747659 5.455859 0.075373 0.132646 -0.197621
-80.597148 46.715391 -11.551163 172.792534 -32.631729 -3.250649 1.157222 19.814185 1.285769 0.029640 2.475449 0.139582 0.164350 4.012618 0.236864 0.859834 17.088978 1.121297 -0.632880 15.515202 -3.360308 0.083443 -6.952934 -6.049955 1.849342 -0.547661 -1.513944 6.685338 -8.784887 -13.492623 -38.916243 -55.248683 83.846963 -1.235181 7.756480 -23.977902 -1.652809 0.705703 2.499396 -5.522888 -5.743667 9.222452 47.399594 -76.499215 -81.538501 -0.626531 8.918810 16.300079 -9.083603 -53.951544 -1.157311 -176.208827 81.878173 -166.229279 -5.660206 -16.489149 -6.689183 0.029020 -0.781639 0.047945 -2.588402 -56.285846 14.932226 -121.406045 81.780236 -124.818940 8.786547 -7.794538 5.410764 0.026505 0.144073 -0.146311
-80.599714 46.703593 -11.549616 172.651929 -32.571421 -3.172877 1.147996 19.806430 1.235686 0.080773 2.448029 0.140277 0.161083 4.009031 0.233499 0.822197 17.089304 1.101974 -0.603935 15.555600 -3.333987 0.086450 -6.868073 -5.997091 1.884548 -0.578960 -1.538305 6.679874 -8.798716 -13.545304 -38.921132 -55.287302 83.825820 -1.253211 7.733842 -23.896770 -1.632600 0.681023 2.484633 -5.530038 -5.765713 9.216292 47.433390 -76.492269 -81.566642 -0.639365 8.965372 16.274275 -8.990337 -54.075933 -1.189336 -175.600132 81.883426 -165.579959 -5.641553 -16.091740 -6.768169 0.037457 -0.913253 0.069894 -2.537285 -56.339224 14.908889 -121.811759 81.810340 -125.174336 8.795480 -7.848903 5.326992 0.056868 0.164268 -0.114269
-80.595323 46.701196 -11.559940 172.624841 -32.598193 -3.208961 1.110369 19.869017 1.260709 0.093983 2.437738 0.138743 0.157719 4.005387 0.230233 0.806192 17.083450 1.086659 -0.595920 15.605116 -3.302860 0.087957 -6.776737 -5.940638 1.900154 -0.600197 -1.557283 6.660145 -8.815396 -13.593399 -38.933111 -55.324465 83.837041 -1.274992 7.727435 -23.819613 -1.633764 0.665910 2.473066 -5.539703 -5.790059 9.218958 47.515957 -76.486356 -81.646298 -0.649519 9.019410 16.246080 -9.062395 -53.990266 -1.182533 -175.489858 81.941835 -165.399788 -5.584488 -15.861079 -6.906734 0.014556 -0.927330 0.093830 -2.607449 -56.308271 14.972278 -122.166183 81.821017 -125.470062 8.790166 -7.897813 5.263446 0.078107 0.181761 -0.095230
-80.598566 46.694884 -11.564375 172.563920 -32.577660 -3.200859 1.137525 19.859289 1.274821 0.062449 2.448023 0.135661 0.154464 4.002179 0.227160 0.790731 17.078386 1.072194 -0.588078 15.656231 -3.271362 0.089041 -6.682401 -5.883375 1.915293 -0.613312 -1.571759 6.633951 -8.838659 -13.641103 -38.928757 -55.315858 83.893177 -1.286406 7.728052 -23.782721 -1.635905 0.651721 2.465286 -5.550308 -5.815113 9.226903 47.619119 -76.481153 -81.751093 -0.662800 9.079968 16.220608 -9.075793 -54.006703 -1.182257 -175.342691 81.983831 -165.206911 -5.573148 -15.541126 -7.041845 0.010287 -0.983998 0.135349 -2.613014 -56.327419 14.997510 -122.497708 81.842276 -125.761168 8.742432 -7.937412 5.250786 0.106637 0.196634 -0.096789
-80.609573 46.685940 -11.565129 172.427295 -32.526953 -3.117516 1.215870 19.815673 1.251859 0.044540 2.452726 0.133504 0.138052 4.005080 0.224370 0.777283 17.074672 1.059258 -0.581119 15.706968 -3.240744 0.088865 -6.588872 -5.827407 1.924156 -0.633059 -1.581688 6.608560 -8.853270 -13.688826 -38.946658 -55.344825 83.894893 -1.265910 7.721658 -23.685957 -1.642103 0.634633 2.463322 -5.515429 -5.824733 9.225217 47.671169 -76.478437 -81.805363 -0.703703 9.128557 16.150836 -8.968595 -54.108025 -1.225749 -175.294057 82.011923 -165.131123 -5.592139 -15.128758 -7.162379 0.005749 -1.091126 0.177616 -2.523817 -56.377532 14.961234 -122.880657 81.882990 -126.117564 8.686716 -7.995912 5.213783 0.127166 0.230474 -0.064944
